<svg xmlns="http://www.w3.org/2000/svg" xmlns:xlink="http://www.w3.org/1999/xlink" viewBox="0 0 77.5 56.34">
  <defs>
    <linearGradient id="a" data-name="New Gradient Swatch" x1="38.75" y1="56.34" x2="38.75" gradientUnits="userSpaceOnUse">
      <stop offset="0" stop-color="#8996d9"/>
      <stop offset="0.21" stop-color="#818ed0"/>
      <stop offset="0.55" stop-color="#6b78b6"/>
      <stop offset="0.98" stop-color="#48558d"/>
      <stop offset="0.99" stop-color="#47548c"/>
    </linearGradient>
  </defs>
  <title>Focus Overlay</title>
  <g>
    <path d="M38.65,45.87a1.75,1.75,0,0,1-.83-.22L.82,24.28a1.65,1.65,0,0,1,0-2.86L37.55.22a1.67,1.67,0,0,1,1.65,0l37,21.37a1.65,1.65,0,0,1,0,2.85L39.47,45.65A1.71,1.71,0,0,1,38.65,45.87ZM5,22.85l33.7,19.46L72.07,23,38.37,3.56ZM76.94,35a1.13,1.13,0,0,0,0-2l-4.77-2.75-1.12,2L74.12,34l-3.07,1.77,1.12,2ZM49.05,51.09l-1.12-2,7.48-4.32,1.12,2Zm11.56-6.68-1.12-1.95L67,38.15l1.12,1.94ZM40.21,56.19,45,53.44l-1.12-1.95-4.2,2.43-4.2-2.43-1.13,1.95,4.77,2.75a1.09,1.09,0,0,0,.56.15A1.12,1.12,0,0,0,40.21,56.19Zm-10-5.13L22.65,46.7l1.12-2,7.56,4.36ZM18.53,44.32,11,40,12.1,38l7.55,4.36ZM8,35.63,4.9,33.85,8,32.07,6.85,30.13,2.09,32.88a1.11,1.11,0,0,0,0,1.94l4.76,2.76Z" fill="url(#a)"/>
    <g>
      <path d="M20,20.85l-3.24-1.7L33.5,10.36,45,16l-3.26,1.79-8.3-4.1-3.3,1.76,4.94,2.48-3.34,1.82-5-2.51Z" fill="#4f6bc1"/>
      <path d="M55.36,29.93a13.91,13.91,0,0,1-2.64,1.2,20.33,20.33,0,0,1-3,.75,21.83,21.83,0,0,1-3.26.3A23.71,23.71,0,0,1,43.15,32a20.49,20.49,0,0,1-3.1-.62,14.46,14.46,0,0,1-2.75-1.09,9.41,9.41,0,0,1-2.07-1.44A5.84,5.84,0,0,1,34,27.25a3.85,3.85,0,0,1,0-3.44,5.67,5.67,0,0,1,1.21-1.61,9,9,0,0,1,2-1.43,14.22,14.22,0,0,1,2.6-1.11A19.71,19.71,0,0,1,42.72,19a22.61,22.61,0,0,1,3.1-.27,23,23,0,0,1,3.12.15,22,22,0,0,1,3,.56,14.53,14.53,0,0,1,2.69,1,9.73,9.73,0,0,1,2.13,1.35,6.18,6.18,0,0,1,1.35,1.55A4.19,4.19,0,0,1,58.65,25a3.84,3.84,0,0,1-.25,1.73,5.32,5.32,0,0,1-1.09,1.67A8.68,8.68,0,0,1,55.36,29.93Zm-3.59-1.81a4.72,4.72,0,0,0,1.6-1.43,2.48,2.48,0,0,0,.46-1.58,2.73,2.73,0,0,0-.68-1.53,5.46,5.46,0,0,0-1.77-1.32,9.88,9.88,0,0,0-2.58-.83,13.8,13.8,0,0,0-2.87-.24,13.55,13.55,0,0,0-2.85.35,9.54,9.54,0,0,0-2.49.94A4.89,4.89,0,0,0,39,23.85,2.45,2.45,0,0,0,39,27a5.12,5.12,0,0,0,1.74,1.37,9.66,9.66,0,0,0,2.61.88,14.13,14.13,0,0,0,5.89-.12A9.45,9.45,0,0,0,51.77,28.12Z" fill="#4f6bc1"/>
    </g>
  </g>
</svg>
